<?xml version="1.0" standalone="no"?>
<!DOCTYPE svg PUBLIC "-//W3C//DTD SVG 20010904//EN"
 "http://www.w3.org/TR/2001/REC-SVG-20010904/DTD/svg10.dtd">
<svg version="1.0" xmlns="http://www.w3.org/2000/svg"
 width="64.000000pt" height="64.000000pt" viewBox="0 0 64.000000 64.000000"
 preserveAspectRatio="xMidYMid meet">

<g transform="translate(0.000000,64.000000) scale(0.100000,-0.100000)"
fill="#000" stroke="none">
<path d="M231 529 c-10 -24 -27 -62 -37 -84 -9 -22 -18 -47 -20 -56 -2 -9 -12
-37 -23 -63 l-21 -47 23 -43 c28 -55 119 -206 123 -206 2 0 17 26 33 59 16 32
41 72 55 88 14 17 23 33 20 36 -3 3 1 19 10 35 14 27 14 35 -1 84 -9 29 -17
60 -18 68 -4 36 -36 88 -79 129 l-45 45 -20 -45z m45 -21 c9 -29 18 -55 20
-57 2 -2 14 4 26 15 l23 19 -22 -26 c-13 -14 -23 -32 -23 -40 -1 -8 -12 20
-25 61 -27 83 -27 80 -21 80 3 0 12 -24 22 -52z m68 -119 c-19 -20 -28 -40
-27 -57 1 -26 1 -27 -4 -2 l-6 25 -8 -25 -7 -25 -1 26 c-1 14 4 30 9 35 8 8
-2 11 -30 11 -28 0 -38 -3 -30 -11 5 -5 9 -21 9 -36 l-2 -25 -5 25 -5 25 -8
-25 -8 -25 2 27 c1 16 -7 36 -22 52 -14 14 -20 26 -14 26 6 0 16 -6 23 -14 9
-12 17 -13 36 -4 17 8 31 8 48 0 20 -9 27 -7 42 9 9 10 22 19 27 19 6 0 -2
-14 -19 -31z m-74 -66 c-11 -17 -11 -17 -6 0 3 10 7 26 7 35 1 15 2 15 6 0 2
-10 -1 -25 -7 -35z m75 -63 l0 -35 -75 0 c-71 0 -75 1 -78 23 -7 47 2 53 80
50 l73 -3 0 -35z m-171 -9 c-2 -3 -12 3 -22 13 -16 17 -16 18 5 5 12 -7 20
-15 17 -18z m216 19 c-8 -5 -19 -10 -25 -10 -5 0 -3 5 5 10 8 5 20 10 25 10 6
0 3 -5 -5 -10z m-199 -63 c-13 -13 -26 -3 -16 12 3 6 11 8 17 5 6 -4 6 -10 -1
-17z m183 -9 c-3 -5 -12 -4 -20 3 -7 6 -11 15 -8 21 3 5 12 4 20 -3 7 -6 11
-15 8 -21z m-111 -41 c4 -29 9 -69 12 -88 4 -30 4 -31 -4 -7 -5 15 -12 51 -16
80 -4 29 -13 56 -19 60 -7 5 -5 8 5 8 12 0 18 -13 22 -53z"/>
<path d="M243 283 c-20 -8 -15 -41 7 -48 29 -9 60 3 60 25 0 25 -34 37 -67 23z
m52 -23 c0 -18 -33 -26 -47 -12 -6 6 -7 15 -3 22 10 16 50 8 50 -10z"/>
</g>
</svg>
