<?xml version="1.0" standalone="no"?>
<!DOCTYPE svg PUBLIC "-//W3C//DTD SVG 20010904//EN"
 "http://www.w3.org/TR/2001/REC-SVG-20010904/DTD/svg10.dtd">
<svg version="1.0" xmlns="http://www.w3.org/2000/svg"
 width="64.000000pt" height="64.000000pt" viewBox="0 0 64.000000 64.000000"
 preserveAspectRatio="xMidYMid meet">

<g transform="translate(0.000000,64.000000) scale(0.100000,-0.100000)"
fill="#000" stroke="none">
<path d="M245 560 c-4 -7 -32 -74 -61 -148 l-53 -136 71 -123 c39 -68 72 -123
74 -123 1 0 32 56 68 124 l66 123 -30 98 c-26 88 -35 104 -78 148 -35 35 -52
46 -57 37z m31 -52 c9 -29 18 -55 20 -57 2 -2 14 4 26 15 l23 19 -22 -25 c-18
-21 -73 -201 -73 -239 0 -6 32 5 71 25 39 19 73 34 75 31 2 -2 -28 -19 -67
-38 l-71 -34 6 -50 c3 -28 8 -67 11 -86 5 -32 5 -33 -4 -5 -6 15 -13 52 -16
80 -6 43 -12 56 -33 69 -15 9 -40 28 -57 42 -18 17 -10 13 21 -9 l50 -35 27
112 28 112 -21 59 c-22 64 -22 66 -16 66 3 0 12 -24 22 -52z"/>
</g>
</svg>
