<?xml version="1.0" standalone="no"?>
<!DOCTYPE svg PUBLIC "-//W3C//DTD SVG 20010904//EN"
 "http://www.w3.org/TR/2001/REC-SVG-20010904/DTD/svg10.dtd">
<svg version="1.0" role="img" xmlns="http://www.w3.org/2000/svg" width="384" height="512" viewBox="0 0 384 512" preserveAspectRatio="xMidYMid meet">
<g fill="#000" stroke="none">
<path  d="M192 0C86.4 0 0 86.4 0 192c0 76.8 25.6 99.2 172.8 310.4 9.6 12.8 28.8 12.8 38.4 0C358.4 291.2 384 268.8 384 192 384 86.4 297.6 0 192 0zm112 200c0 8.84-7.16 16-16 16H96c-8.84 0-16-7.16-16-16v-16c0-8.84 7.16-16 16-16h192c8.84 0 16 7.16 16 16v16z"></path>
</g>
</svg>